<svg width="213" height="64" viewBox="0 0 213 64" fill="none" xmlns="http://www.w3.org/2000/svg">
<rect width="1440" height="1024" transform="translate(-627 -136)" fill="white"/>
<g clip-path="url(#clip0_7_8)">
<path d="M-2.35983 71H77V-11C49.6669 -11 22.3331 -11 -5 -11C-5 16.2129 -5 43.4267 -4.9968 70.6396C-4.9968 70.7598 -4.94715 70.8799 -4.91992 71C-4.90711 70.7237 -4.87347 70.4459 -4.88789 70.1704C-4.90311 69.8661 -4.80942 69.73 -4.4851 69.7516C-4.16879 69.7724 -3.84927 69.7532 -3.53136 69.746C-2.74873 69.7294 -2.35796 70.1077 -2.35902 70.8807C-2.35902 70.9207 -2.35902 70.96 -2.35902 71H-2.35983ZM24.5528 41.8748C23.3036 42.5827 22.1673 42.3857 21.0718 41.6922C20.9293 41.6017 20.8132 41.4247 20.7499 41.263C20.2326 39.9401 19.7978 38.5796 19.2052 37.2911C18.607 35.9906 17.8455 34.7663 17.1832 33.493C16.9582 33.0606 16.6651 32.5817 16.6707 32.1269C16.6844 30.9778 16.9414 29.8543 17.5652 28.8557C17.8207 28.4465 17.7878 28.3632 17.4451 28.0285C17.1176 27.709 16.8485 27.327 16.5698 26.9602C16.0445 26.2684 15.9156 25.2922 15.0492 24.8414C14.9763 24.8037 14.9371 24.6956 14.8906 24.6163C14.5222 23.9893 14.2716 23.3167 14.2372 22.5888C14.1963 21.7295 14.5967 21.0288 15.1252 20.3882C15.7386 19.6451 16.2407 18.8619 16.107 17.8273C16.063 17.4846 16.0333 17.1362 16.0421 16.7919C16.071 15.694 16.2647 14.6562 17.0855 13.8242C17.7478 13.1524 18.3684 12.4397 19.0122 11.7494C19.3181 11.4211 19.6024 11.0599 19.9547 10.7901C20.4857 10.3833 21.1319 10.2872 21.7933 10.2215C22.3995 10.1614 23.0041 10.2824 23.5967 9.82352C24.492 9.12924 25.5386 8.63275 26.5003 8.02016C28.1988 6.9383 30.0574 6.30168 32.0233 5.93172C33.9076 5.57697 35.8142 5.64984 37.7137 5.61621C38.8564 5.59619 39.9831 5.8084 41.097 6.08787C42.6217 6.46984 44.1023 6.94791 45.4949 7.70144C45.9857 7.9665 46.5559 8.12586 47.1092 8.22355C47.9445 8.3709 48.8013 8.38771 49.6381 8.52945C49.9969 8.59031 50.3692 8.76809 50.6615 8.9899C51.5608 9.67457 52.4248 10.4057 53.3025 11.1184C53.9767 11.6661 54.3467 12.3748 54.2554 13.2413C54.1801 13.9563 54.1441 14.6674 54.6838 15.1871C55.3941 15.871 55.4117 16.7415 55.5287 17.6055C55.5471 17.7408 55.6336 17.9178 55.7433 17.9819C56.3134 18.3166 56.6249 18.8283 56.882 19.4177C57.3849 20.5724 57.0373 22.0835 56.0235 22.7497C55.3749 23.1757 54.9121 23.6874 54.6878 24.4562C54.5677 24.8694 54.6158 25.1745 54.9016 25.4275C55.7056 26.137 56.4792 26.8994 57.3632 27.4944C58.1088 27.9964 58.6933 28.4873 58.8127 29.4459C58.8631 29.8511 58.9031 30.2018 58.779 30.6038C58.586 31.2292 58.1824 31.5871 57.5939 31.7801C57.3568 31.8586 57.2655 32.0004 57.2631 32.2534C57.2559 32.9805 57.095 33.6692 56.7819 34.3354C56.2966 35.3684 55.6872 36.2485 54.5149 36.5752C54.2426 36.6513 54.1489 36.8387 54.0905 37.1262C53.9551 37.7972 53.7581 38.4562 53.5635 39.1137C53.4658 39.4436 53.2392 39.7527 53.2104 40.0834C53.1471 40.7937 53.1439 41.5136 53.1728 42.2279C53.2048 43.0423 53.2608 43.8543 52.9029 44.6167C52.8124 44.8088 52.6707 45.0603 52.5009 45.1123C52.1886 45.2076 52.163 45.3766 52.1638 45.6417C52.1694 47.043 52.1365 48.4452 52.1734 49.845C52.1886 50.4103 51.9828 50.8267 51.5456 51.0918C50.5662 51.686 50.1578 52.6093 49.8879 53.6583C49.695 54.4094 49.4059 55.179 48.7957 55.661C48.0261 56.2688 47.1012 56.5299 46.0874 56.2936C45.8736 56.244 45.6062 56.2632 45.4052 56.3489C44.9832 56.5291 44.5844 56.7669 44.1848 56.9967C43.5986 57.3339 43.0124 57.6726 42.4407 58.0346C41.9971 58.3156 41.5863 58.6496 41.1386 58.9218C41.0257 58.9907 40.7959 58.9635 40.6686 58.893C40.2041 58.6351 39.7605 58.3413 39.3096 58.0594C37.9707 57.2218 36.6318 56.3849 35.2945 55.5457C34.1926 54.8547 33.0964 54.1548 31.9897 53.4709C31.5388 53.1922 31.0656 52.9512 30.6091 52.6821C30.2216 52.4531 29.8636 52.1632 29.4576 51.9774C28.415 51.5026 27.41 51.0141 27.2435 49.696C27.2403 49.6704 27.2258 49.6456 27.217 49.6207C26.4843 47.4394 25.7548 45.2573 25.0173 43.0784C24.882 42.6796 24.7162 42.2912 24.556 41.874L24.5528 41.8748Z" fill="white"/>
<path d="M24.552 41.8748C24.713 42.292 24.8787 42.6804 25.0133 43.0792C25.7508 45.2589 26.4803 47.4402 27.213 49.6215C27.2218 49.6472 27.2362 49.6712 27.2394 49.6968C27.406 51.0149 28.411 51.5026 29.4536 51.9782C29.8604 52.1632 30.2175 52.4539 30.6051 52.6829C31.0616 52.9528 31.5348 53.1938 31.9857 53.4717C33.0915 54.1556 34.1886 54.8554 35.2905 55.5465C36.6278 56.3857 37.9667 57.2225 39.3056 58.0602C39.7564 58.342 40.2001 58.6359 40.6645 58.8938C40.7919 58.9643 41.0217 58.9915 41.1346 58.9226C41.583 58.6503 41.993 58.3164 42.4367 58.0353C43.0076 57.6734 43.5946 57.3347 44.1808 56.9975C44.5803 56.7677 44.9791 56.5307 45.4011 56.3497C45.6021 56.264 45.8688 56.2448 46.0834 56.2944C47.0972 56.5315 48.0221 56.2696 48.7917 55.6618C49.4011 55.1806 49.6909 54.411 49.8839 53.6591C50.1538 52.6101 50.5622 51.6868 51.5415 51.0926C51.9788 50.8275 52.1846 50.4103 52.1694 49.8458C52.1325 48.4452 52.1661 47.043 52.1597 45.6425C52.1589 45.3782 52.1846 45.2084 52.4969 45.1131C52.6674 45.0611 52.8092 44.8096 52.8989 44.6175C53.2568 43.8551 53.2008 43.0439 53.1687 42.2287C53.1407 41.5152 53.1439 40.7953 53.2064 40.0842C53.236 39.7535 53.4618 39.4444 53.5595 39.1145C53.7541 38.457 53.9511 37.7972 54.0864 37.1269C54.1441 36.8395 54.2386 36.6521 54.5108 36.576C55.6832 36.2493 56.2926 35.3692 56.7778 34.3362C57.091 33.67 57.2519 32.9813 57.2591 32.2542C57.2615 32.0011 57.352 31.8594 57.5898 31.7809C58.1776 31.5871 58.582 31.23 58.775 30.6046C58.8991 30.2026 58.8591 29.851 58.8086 29.4467C58.6901 28.4881 58.1055 27.9972 57.3592 27.4951C56.4752 26.9002 55.7016 26.1386 54.8976 25.4283C54.6109 25.1753 54.5629 24.8702 54.6838 24.457C54.908 23.6882 55.3717 23.1765 56.0195 22.7505C57.0333 22.0835 57.3808 20.5732 56.8779 19.4185C56.6209 18.8283 56.3102 18.3174 55.7392 17.9827C55.6295 17.9186 55.543 17.7416 55.5246 17.6063C55.4069 16.7423 55.3901 15.8718 54.6798 15.1879C54.1401 14.6682 54.1761 13.9571 54.2514 13.242C54.3427 12.3756 53.9727 11.6669 53.2985 11.1192C52.4208 10.4065 51.5568 9.67456 50.6575 8.99069C50.3652 8.76888 49.9928 8.5903 49.6341 8.53024C48.7981 8.3885 47.9404 8.37169 47.1052 8.22435C46.5519 8.12665 45.9817 7.96729 45.4908 7.70224C44.0983 6.9487 42.6176 6.47063 41.0929 6.08866C39.9791 5.80919 38.8524 5.59698 37.7096 5.617C35.811 5.65063 33.9035 5.57776 32.0193 5.93251C30.0534 6.30247 28.1948 6.93909 26.4963 8.02095C25.5346 8.63354 24.4879 9.13003 23.5927 9.8243C23.0001 10.2832 22.3955 10.1622 21.7893 10.2223C21.1287 10.288 20.4824 10.3841 19.9507 10.7908C19.5984 11.0607 19.3141 11.4219 19.0082 11.7502C18.3644 12.4405 17.743 13.1524 17.0815 13.825C16.2615 14.657 16.0677 15.6948 16.0381 16.7927C16.0293 17.137 16.0581 17.4862 16.103 17.8281C16.2367 18.8627 15.7346 19.6459 15.1212 20.389C14.5927 21.0288 14.1923 21.7303 14.2331 22.5896C14.2676 23.3167 14.5182 23.9893 14.8866 24.6171C14.9338 24.6972 14.9731 24.8045 15.0451 24.8422C15.9116 25.2938 16.0405 26.2691 16.5658 26.961C16.8445 27.3278 17.1135 27.709 17.4411 28.0293C17.7838 28.364 17.8166 28.4473 17.5612 28.8565C16.9374 29.8551 16.6803 30.9785 16.6667 32.1277C16.6611 32.5825 16.9542 33.0614 17.1792 33.4938C17.8415 34.7662 18.603 35.9906 19.2012 37.2919C19.793 38.5804 20.2286 39.9401 20.7459 41.2638C20.8092 41.4263 20.9253 41.6033 21.0678 41.693C22.1633 42.3865 23.2996 42.5835 24.5488 41.8756L24.552 41.8748ZM19.0474 27.4039C19.0987 27.5408 19.1628 27.6753 19.1964 27.8163C19.21 27.8763 19.1788 27.9812 19.1331 28.0109C19.0819 28.0437 18.9513 28.0421 18.9233 28.0044C18.7015 27.7066 18.4957 27.3967 18.2651 27.0627C18.5582 27.1925 18.8064 27.3022 19.0546 27.4119C19.5383 27.1604 20.022 26.9098 20.5697 26.6255C20.5489 26.8465 20.5657 27.0251 20.5097 27.1772C20.3727 27.5504 20.1942 27.9092 20.0476 28.2791C19.9571 28.5073 19.8002 28.7684 20.0484 28.9766C20.3895 29.2625 20.7547 29.5203 21.1223 29.7726C21.6636 30.1433 22.0456 31.2132 21.5963 31.7433C20.85 31.4702 20.7147 31.5183 20.3103 32.2021C20.2358 32.3279 20.1477 32.4504 20.1013 32.5865C19.7898 33.501 19.6889 34.4475 19.9379 35.3788C20.1373 36.1228 20.3823 36.8523 21.0966 37.3528C21.4202 37.5794 21.5571 37.6619 21.8229 37.3071C21.8654 37.6707 21.8133 38.0118 21.8846 38.3249C21.9278 38.5163 22.1344 38.7517 22.3154 38.8046C22.4668 38.8494 22.7478 38.7053 22.8616 38.5587C22.9985 38.3834 23.0161 38.1167 23.0914 37.8917C23.2443 37.4376 23.2772 36.9292 23.7176 36.5031C23.8281 36.9924 23.9218 37.4072 24.0227 37.8549C24.5552 37.1542 24.4231 36.4327 23.6159 35.6143C23.4686 35.7808 23.2972 35.9282 23.1851 36.1116C22.9801 36.4463 22.7214 36.5416 22.3811 36.3558C22.1857 36.2493 21.9679 36.1404 21.8318 35.9746C21.0782 35.0577 21.0318 34.2529 21.6332 33.2223C21.6388 33.2135 21.6732 33.2215 21.7044 33.2215C21.6892 33.3368 21.6748 33.4466 21.6604 33.5563C21.6956 33.5675 21.7309 33.5787 21.7661 33.5891C21.9367 33.2055 22.1064 32.8219 22.3034 32.3783C22.3979 32.9869 22.4876 33.5242 23.1138 33.718C23.1595 32.8292 23.2035 31.9707 23.2499 31.0714C22.9785 30.8128 22.8391 30.7695 22.5789 30.8913C22.1072 31.1115 22.0792 31.0915 22.0704 30.5245C22.1545 30.6198 22.2313 30.7071 22.309 30.7952C22.1673 30.0873 21.9158 29.4082 21.3921 28.947C20.5609 28.2143 20.5761 27.8827 21.0446 26.5959C21.1711 26.8753 21.2976 27.1548 21.4474 27.4847C21.5018 27.339 21.5379 27.2413 21.6099 27.0475C21.9871 27.6009 22.317 28.0845 22.6101 28.5137V27.9108C22.6502 27.8979 22.6902 27.8843 22.7302 27.8715C23.4645 28.6763 23.9891 29.5716 23.8089 30.7735C23.8521 30.7816 23.8962 30.7888 23.9394 30.7968C24.2373 30.3339 24.5344 29.8719 24.8371 29.4018C25.3312 29.7622 25.8509 30.1762 26.4058 30.5365C27.0737 30.9697 27.7912 31.3277 28.451 31.7729C29.042 32.1717 29.6546 32.3006 30.3393 32.1565C30.5419 32.1141 30.7444 32.0668 30.9695 32.0164C31.056 33.4001 31.6549 34.5869 32.2203 35.7712C32.6791 36.7322 33.4623 37.3896 34.5626 37.4777C35.5676 37.5586 36.5821 37.5706 37.5903 37.5458C38.5401 37.5225 39.4201 37.2791 40.2737 36.777C41.1738 36.2469 41.7488 35.4805 42.1828 34.6173C42.5792 33.8293 42.7738 32.9413 43.0773 32.1044C43.1205 31.9851 43.2703 31.8338 43.3824 31.8226C43.8845 31.7721 44.3914 31.7577 44.8967 31.7497C45.3163 31.7433 45.6206 31.9563 45.7391 32.3543C45.8864 32.8508 45.9833 33.3625 46.1074 33.8654C46.2332 34.3739 46.2011 34.9072 46.5319 35.3836C47.2109 36.3606 47.6529 37.4609 48.0245 38.59C48.1398 38.9399 48.0678 39.1914 47.8251 39.4933C47.3991 40.0242 46.9114 40.4678 46.3909 40.8978C45.6542 41.5072 44.6524 41.496 44.0094 40.7713C43.2286 39.8912 42.3245 39.3187 41.1002 39.4836C40.8191 39.5213 40.5516 39.6646 40.2778 39.7599C40.2657 39.8096 40.2537 39.86 40.2425 39.9097C40.1432 39.7519 39.9983 39.6054 39.9518 39.4332C39.7989 38.8614 40.0047 38.3762 40.4315 38.003C40.7294 37.7419 41.0873 37.5506 41.3956 37.2999C41.5406 37.1822 41.6791 37.0116 41.7296 36.8379C41.7584 36.7394 41.6239 36.5656 41.5214 36.4703C41.4829 36.4343 41.3076 36.4951 41.2307 36.5568C40.9136 36.8106 40.6285 37.1093 40.297 37.3408C39.7372 37.7307 39.2047 38.1359 38.8259 38.7205C38.4167 39.3531 38.0051 39.9857 37.5543 40.5871C37.3533 40.8546 37.0722 41.0772 36.792 41.2678C36.1313 41.7162 35.4498 42.1334 34.7764 42.5634C36.5149 42.5386 38.4496 41.7579 39.1615 39.8024C39.6011 40.1219 40.0327 40.4982 40.5212 40.7737C41.0145 41.0524 41.5894 41.1845 42.0803 41.4656C42.6008 41.7635 43.1141 42.1118 43.5345 42.5338C43.782 42.7821 43.9934 42.971 44.3393 43.0375C45.3371 43.2297 46.3349 43.4643 47.0884 44.2034C47.5561 44.6615 47.9532 45.194 48.3656 45.7057C48.5082 45.8827 48.6011 46.0989 48.7172 46.2967C47.6738 46.1341 46.704 45.8683 45.7223 45.6601C43.8645 45.2661 41.9986 45.142 40.0992 45.4078C38.2854 45.6617 36.6182 46.3095 34.9838 47.0807C34.8877 47.1263 34.8332 47.26 34.7588 47.3529C34.8757 47.3737 35.0006 47.4314 35.1087 47.4098C36.0953 47.2088 37.0842 47.019 38.0612 46.7788C40.0655 46.2855 42.0819 46.0252 44.1447 46.3103C45.5725 46.5073 46.9763 46.7724 48.2175 47.5731C48.4898 47.7485 48.6996 47.9511 48.6587 48.2658C47.8171 48.2658 46.9795 48.3171 46.1499 48.2546C44.7277 48.1473 43.3063 48.0176 41.8921 48.261C41.5342 48.3227 41.1618 48.5245 40.8847 48.7647C40.6693 48.9521 40.5372 49.1787 40.1304 48.9521C40.2585 49.1227 40.349 49.1899 40.3602 49.2676C40.4027 49.5783 40.5684 49.5623 40.8159 49.5086C41.137 49.4398 41.4709 49.4013 41.8 49.3989C42.4519 49.3957 43.1101 49.3789 43.7555 49.4542C44.835 49.5799 45.908 49.7673 46.9811 49.9411C47.4648 50.0195 47.729 50.3398 47.7787 50.8123C47.8828 51.8053 47.8211 52.783 47.3823 53.7015C47.3294 53.812 47.2173 53.941 47.1084 53.9698C46.6496 54.0923 46.1851 54.2356 45.7159 54.2701C44.2849 54.3742 42.8507 54.4374 41.4173 54.5047C40.4996 54.5479 39.5811 54.576 38.6626 54.5984C38.2213 54.6088 37.8722 54.3902 37.5967 54.0675C37.3301 53.7544 37.0618 53.4349 36.8488 53.0849C36.5269 52.5564 36.245 52.0023 35.9607 51.4513C35.7662 51.0734 35.6396 50.6505 35.1784 50.3807C35.2553 50.9388 35.3233 51.4313 35.3978 51.9734C34.6931 51.7084 34.0269 51.4585 33.3614 51.2063C32.5806 50.91 31.8015 50.6105 31.0215 50.3142C30.4506 50.0972 29.8692 49.9042 29.3103 49.6592C28.9771 49.5134 28.5439 49.3621 28.391 49.0834C28.0298 48.4252 27.8 47.6941 27.5349 46.9846C27.3443 46.4745 27.201 45.946 27.0056 45.4375C26.3818 43.8127 25.9478 42.1623 25.9502 40.3933C25.951 39.5541 25.6939 38.7141 25.5546 37.8749C25.3015 38.6092 25.1782 39.3419 24.9348 40.0322C24.7858 40.4542 24.54 40.9603 24.1861 41.1701C23.2091 41.7483 22.124 41.6602 21.5819 40.4021C21.0974 39.2802 20.6218 38.1552 20.1253 37.0381C19.9531 36.6505 19.7209 36.2901 19.5359 35.9066C19.2476 35.3076 18.9826 34.6966 18.6959 34.0968C18.5469 33.7853 18.4028 33.4642 18.2026 33.1855C17.8519 32.6986 17.6909 32.1581 17.7566 31.5831C17.8655 30.6222 18.1986 29.7205 18.6366 28.8605C18.6591 28.8164 18.7327 28.7988 18.7896 28.7644C18.8432 28.947 18.8881 29.1015 18.9537 29.3281C19.0106 29.2144 19.045 29.1792 19.0394 29.1512C18.9537 28.6891 18.8985 28.2407 19.403 27.9548C19.4799 27.9116 19.5279 27.8171 19.5119 27.8347C19.3253 27.6609 19.1844 27.5304 19.045 27.4007L19.0474 27.4039ZM50.9682 20.1832C51.0178 20.1816 51.0683 20.18 51.1179 20.1784C51.2997 20.4643 51.4895 20.7454 51.6593 21.0376C51.7786 21.2434 51.857 21.4725 51.9748 21.6783C52.6851 22.9235 52.8909 24.2784 52.8036 25.683C52.7908 25.8864 52.5858 26.1747 52.3976 26.2539C51.5191 26.6239 50.6254 26.9674 49.7174 27.2573C48.7084 27.5784 47.6634 27.6609 46.6023 27.592C46.314 27.5728 46.2187 27.4799 46.1042 27.2157C45.9169 26.7825 45.9433 26.097 45.2386 26.1618C45.3043 26.7168 45.4108 27.2645 45.4228 27.8147C45.438 28.5033 45.1681 28.7428 44.4811 28.766C44.2945 28.7724 44.1071 28.7748 43.9213 28.7572C43.2831 28.6979 42.6465 28.6299 42.0347 28.5674C42.2621 28.0549 42.4847 27.6321 42.6288 27.1844C42.6817 27.0211 42.5472 26.7977 42.4975 26.6007C42.3398 26.688 42.1716 26.76 42.0275 26.8657C41.744 27.0731 41.5045 27.3782 41.1914 27.5016C40.4179 27.8058 39.6019 27.7154 38.8444 27.4471C37.3805 26.9282 35.9471 26.3236 34.4889 25.7863C33.8971 25.5685 33.2821 25.329 32.6599 25.7607C32.2795 26.0249 32.1963 26.2651 32.4309 26.6567C32.5838 26.9122 32.7576 27.1556 32.9306 27.4175C32.8225 27.4447 32.7608 27.4599 32.6263 27.4935C33.2157 27.7058 33.7306 27.8915 34.3111 28.1005C34.0317 28.143 33.813 28.1878 33.5928 28.207C32.547 28.2959 31.5012 28.3808 30.4546 28.4609C29.5881 28.5274 28.7697 28.4273 28.0018 27.9444C27.3403 27.5288 26.6196 27.2085 25.9277 26.8417C25.6251 26.6808 25.585 26.4774 25.7484 26.1562C26.3345 25.0007 26.6949 23.7651 26.6429 22.4686C26.598 21.3572 26.4451 20.2457 26.2689 19.1462C26.0631 17.8617 25.7596 16.5933 25.5346 15.3121C25.2839 13.8867 25.0693 12.4549 24.8571 11.0239C24.8403 10.9126 24.9388 10.7308 25.0381 10.6635C25.5113 10.344 26.0142 10.0693 26.4859 9.74823C27.7367 8.8954 29.1213 8.30282 30.5138 7.75108C31.9688 7.17452 33.5136 6.93749 35.0815 6.92788C35.9591 6.92308 36.8408 6.93509 37.7136 7.01516C38.5433 7.09124 39.3769 7.21296 40.1841 7.41315C40.8071 7.5677 41.3764 7.93927 41.9994 8.09862C42.7746 8.29641 43.3904 8.76247 44.0254 9.17888C45.462 10.1206 46.6167 11.3706 47.6089 12.7656C48.0758 13.4222 48.5194 14.1005 48.9166 14.8012C49.2425 15.3761 49.5068 15.9903 49.7526 16.6053C49.9424 17.0802 50.0897 17.5775 50.2034 18.0764C50.2755 18.3951 50.133 18.6513 49.7654 18.7098C49.3834 18.7698 49.2169 19.0205 49.2297 19.38C49.2401 19.6851 49.0984 19.8685 48.8733 20.0447C48.4898 20.345 48.0493 20.6172 47.7763 21.0032C47.4576 21.4541 46.7937 21.5558 46.3301 21.3411C45.0248 20.7358 43.6763 20.1976 42.2437 20.0319C41.0457 19.8933 39.8261 19.9278 38.6161 19.9158C38.3319 19.9133 38.0468 20.0319 37.7625 20.0943C38.2982 20.2305 38.8251 20.2697 39.352 20.3121C40.5148 20.4066 41.7007 20.3938 42.8338 20.6325C43.8348 20.8431 44.7765 21.3339 45.7455 21.6999C46.27 21.8985 46.8049 21.9049 47.3559 21.8184C47.6914 21.7656 47.7114 21.4605 47.8892 21.2891C48.2383 20.9528 48.6435 20.6765 49.0135 20.3602C49.1464 20.2465 49.2665 20.1031 49.3514 19.951C49.4715 19.7364 49.5532 19.5009 49.6685 19.2367C50.3828 19.6427 50.5454 20.2865 50.5486 20.9135C50.6687 20.7037 50.8184 20.4443 50.9674 20.1848L50.9682 20.1832ZM20.014 23.9813C19.391 24.3729 19.2701 24.7549 19.5824 25.4459C19.6424 25.5781 19.7617 25.6894 19.797 25.8255C19.8234 25.9248 19.7954 26.0962 19.7257 26.1522C19.5295 26.31 18.4284 26.2667 18.2755 26.0577C17.9199 25.5717 17.5724 25.0656 17.3209 24.5218C17.1472 24.1463 16.975 23.8652 16.5658 23.7251C15.7746 23.4528 15.3158 22.3886 15.4679 21.7936C15.568 21.402 15.7594 21.0256 15.9572 20.6693C16.123 20.3706 16.3024 20.0166 16.5754 19.8549C16.9366 19.6403 16.9966 19.3568 17.0551 19.0133C17.0911 18.8043 17.176 18.6033 17.2457 18.375C17.192 18.2565 17.0519 18.0812 17.0415 17.8994C17.0022 17.1875 16.9774 16.4732 17.0006 15.7613C17.0159 15.2848 17.2537 14.8981 17.594 14.5377C18.4685 13.6128 19.5383 12.9385 20.5057 12.1354C21.2408 11.5244 22.1961 11.8815 22.4035 12.7367C22.6069 13.576 22.8207 14.4128 23.0137 15.2544C23.0786 15.5387 23.1042 15.8326 23.1306 16.1241C23.2075 16.9929 22.9256 17.3597 22.0864 17.5126C21.9543 17.5366 21.8278 17.5935 21.5731 17.676C21.8494 17.8625 22.0215 17.9787 22.1849 18.0884C22.1232 18.1741 22.0624 18.2573 22.0031 18.3398C21.6404 17.9819 21.1375 18.0491 20.8052 18.5008C21.0726 18.5592 21.3136 18.6129 21.5547 18.6657L21.5819 18.7666C20.6914 19.2535 19.8058 19.7492 18.9073 20.2208C18.7303 20.3137 18.4981 20.2953 18.3043 20.365C18.2074 20.3994 18.0681 20.5163 18.0697 20.594C18.0753 20.9472 18.1233 21.2987 18.1578 21.6687C18.1618 21.6671 18.0937 21.6911 18.004 21.7215C18.2074 22.0674 18.4781 22.2404 18.8344 22.3277C19.1275 22.399 19.4134 22.5135 19.6873 22.6424C19.9731 22.7769 20.0412 23.3871 19.821 23.6082C19.6472 23.7827 19.4863 23.9693 19.2981 24.1735C19.5527 24.1062 19.7842 24.0454 20.0156 23.9837L20.014 23.9813ZM36.4236 36.4471C34.7508 36.4399 33.8154 36.2477 33.0379 34.5172C32.9458 34.3114 32.8329 34.1152 32.74 33.9094C32.4037 33.1655 32.1402 32.3999 32.1418 31.5711C32.1418 31.2148 32.3052 31.1171 32.6103 31.278C32.8921 31.427 33.17 31.5823 33.4407 31.7497C33.8739 32.0172 34.2671 32.3935 34.7355 32.5497C35.6604 32.8588 36.6094 32.8684 37.5183 32.3935C38.3254 31.9723 38.8187 31.2941 39.1903 30.4909C39.2896 30.2755 39.4553 29.9592 39.6259 29.9351C40.0503 29.8751 40.4972 29.9375 40.9304 29.9928C41.0353 30.0064 41.181 30.1698 41.2019 30.2843C41.2787 30.6991 41.3636 31.1235 41.35 31.5407C41.3084 32.8019 40.7518 33.8862 40.1176 34.9424C39.8517 35.3852 39.5146 35.7232 39.0301 35.8889C38.532 36.0595 38.0292 36.2317 37.5159 36.3414C37.1035 36.4295 36.6718 36.4255 36.4252 36.4463L36.4236 36.4471ZM51.1556 29.8366C51.3141 30.1513 51.4791 30.4829 51.648 30.8128C51.8402 31.186 51.9852 31.5992 52.2462 31.9155C52.4528 32.1661 52.5265 32.4007 52.5417 32.7018C52.5962 33.7925 52.2094 34.7911 51.8859 35.7984C51.8266 35.9826 51.5784 36.1676 51.3782 36.2325C50.74 36.4399 50.0769 36.3798 49.4539 36.178C48.9662 36.0203 48.5026 35.7616 48.2832 35.2347C47.8804 34.2666 47.4423 33.3112 47.0844 32.3271C46.9098 31.8466 46.8826 31.3117 46.7889 30.8016C46.8313 30.7864 46.8738 30.7703 46.9154 30.7551C47.0203 30.8672 47.122 30.9826 47.2309 31.0915C47.5232 31.3829 47.7835 31.7265 48.123 31.9475C48.481 32.1805 48.9038 32.3327 49.3178 32.456C50.2707 32.7403 51.2412 33.063 52.1453 32.2214C51.8947 31.9115 51.6488 31.608 51.3822 31.278C50.8937 31.6808 50.5758 32.5056 49.783 31.7497C50.2395 31.1131 50.6935 30.4805 51.1556 29.8374V29.8366ZM48.1638 9.13403C48.8605 9.29419 49.6165 9.22452 50.2082 9.7114C51.0186 10.3768 51.8082 11.0695 52.5874 11.7718C53.0999 12.2331 53.3441 12.82 53.264 13.5223C53.2184 13.9187 52.8901 14.396 52.4704 14.4825C52.7203 14.0692 52.9189 13.7425 53.1167 13.4158C52.2206 13.4807 52.432 14.1974 52.2494 14.7451C52.006 14.4664 51.7874 14.179 51.6264 13.8626C51.3317 13.2829 51.0939 12.6727 50.788 12.0993C50.5518 11.6573 50.2995 11.2041 49.9624 10.8405C49.4123 10.2455 48.7877 9.7194 48.163 9.13483L48.1638 9.13403ZM54.9008 30.9057C55.2099 31.2476 55.4429 31.5591 55.7304 31.8074C56.0067 32.046 56.074 32.2998 56.0379 32.6506C55.881 34.1657 54.9136 35.0994 53.6484 35.9818C53.8013 35.3084 53.8934 34.7142 54.0744 34.148C54.3435 33.308 54.8568 32.5457 54.8568 31.6192C54.8568 31.399 54.8832 31.1795 54.9008 30.9057ZM38.9789 29.9327C38.3951 31.2356 37.7609 31.8202 36.876 31.8194C37.6296 31.3493 37.5447 30.5485 37.7425 29.8615C38.1108 29.8615 38.4544 29.8583 38.7987 29.8647C38.8588 29.8655 38.9188 29.9087 38.9789 29.9327ZM35.7637 31.9555C35.1383 32.1117 33.6833 31.2692 33.2509 30.5237C33.6889 30.3475 34.1181 30.1754 34.5986 29.9816C34.6635 30.8833 34.9566 31.5575 35.7645 31.9547L35.7637 31.9555ZM50.7792 18.528C50.8401 18.6081 50.9874 18.7346 51.0362 18.8916C51.0627 18.9748 50.9329 19.123 50.8481 19.2207C50.7816 19.2967 50.6799 19.3448 50.5886 19.3944C50.4805 19.4521 50.2923 19.565 50.2667 19.537C50.157 19.4169 50.0449 19.2599 50.0273 19.1062C49.9968 18.8435 50.3876 18.5136 50.7792 18.5296V18.528ZM16.171 25.2514C16.107 25.293 16.0421 25.3346 15.978 25.3763C15.7122 24.9639 15.4455 24.5515 15.1797 24.1391C15.2285 24.1062 15.2774 24.0742 15.3254 24.0414C15.6073 24.445 15.8892 24.8478 16.171 25.2514ZM54.6502 32.2286C54.6261 32.2326 54.6021 32.2366 54.5781 32.2414C54.4588 31.7393 54.3403 31.2372 54.221 30.7351C54.2602 30.7271 54.2986 30.7191 54.3379 30.7111C54.442 31.2172 54.5461 31.7233 54.6502 32.2286Z" fill="black"/>
<path d="M50.9682 20.1832C50.8193 20.4427 50.6703 20.7021 50.5494 20.9119C50.5462 20.2849 50.3836 19.6419 49.6693 19.2351C49.5548 19.5002 49.4723 19.7356 49.3522 19.9494C49.2665 20.1016 49.1472 20.2449 49.0143 20.3586C48.6443 20.6749 48.2391 20.9512 47.89 21.2875C47.7122 21.4589 47.6922 21.7648 47.3567 21.8168C46.8057 21.9033 46.2708 21.8961 45.7463 21.6983C44.7774 21.3324 43.8356 20.8407 42.8347 20.6309C41.7016 20.393 40.5156 20.4058 39.3529 20.3106C38.826 20.2673 38.2998 20.2289 37.7633 20.0927C38.0476 20.0303 38.3327 19.911 38.617 19.9142C39.8269 19.9262 41.0465 19.8917 42.2445 20.0303C43.6771 20.196 45.0248 20.7342 46.3309 21.3396C46.7945 21.5542 47.4584 21.4525 47.7771 21.0016C48.0502 20.6157 48.4906 20.3434 48.8742 20.0431C49.0992 19.8669 49.2417 19.6835 49.2305 19.3784C49.2177 19.0189 49.3843 18.7683 49.7662 18.7082C50.1338 18.6497 50.2763 18.3935 50.2043 18.0748C50.0905 17.5759 49.944 17.0786 49.7534 16.6037C49.5076 15.9887 49.2425 15.3745 48.9174 14.7996C48.521 14.0989 48.0774 13.4206 47.6097 12.764C46.6176 11.369 45.4628 10.1198 44.0262 9.1773C43.3912 8.76089 42.7762 8.29563 42.0003 8.09704C41.3772 7.93769 40.8087 7.56612 40.1849 7.41157C39.3777 7.21138 38.5441 7.08966 37.7145 7.01358C36.8416 6.93351 35.96 6.92149 35.0823 6.9263C33.5144 6.93511 31.9697 7.17294 30.5146 7.7495C29.1229 8.30124 27.7383 8.89462 26.4867 9.74665C26.0151 10.0678 25.5122 10.3424 25.0389 10.6619C24.9388 10.7292 24.8411 10.9102 24.8579 11.0223C25.0701 12.4541 25.2855 13.8851 25.5354 15.3105C25.7604 16.5917 26.0631 17.8602 26.2697 19.1446C26.4459 20.2441 26.5988 21.3556 26.6437 22.4671C26.6957 23.7635 26.3354 24.9991 25.7492 26.1547C25.5858 26.4758 25.6259 26.68 25.9286 26.8401C26.6204 27.2069 27.3412 27.5272 28.0026 27.9428C28.7705 28.4257 29.5889 28.525 30.4554 28.4593C31.502 28.3792 32.5478 28.2943 33.5937 28.2055C33.8139 28.187 34.0325 28.1414 34.312 28.099C33.7314 27.89 33.2165 27.7042 32.6271 27.492C32.7616 27.4583 32.8233 27.4431 32.9314 27.4159C32.7584 27.154 32.5847 26.9106 32.4317 26.6551C32.1971 26.2636 32.2804 26.0233 32.6607 25.7591C33.2829 25.3275 33.8988 25.5669 34.4897 25.7847C35.9479 26.3212 37.3813 26.9266 38.8452 27.4455C39.6019 27.7138 40.4179 27.8043 41.1923 27.5C41.5054 27.3766 41.7448 27.0716 42.0283 26.8641C42.1724 26.7584 42.3414 26.6864 42.4983 26.5991C42.5472 26.7953 42.6817 27.0195 42.6297 27.1829C42.4855 27.6305 42.2621 28.0533 42.0355 28.5658C42.6473 28.6283 43.2847 28.6963 43.9221 28.7556C44.1071 28.7724 44.2953 28.7708 44.4819 28.7644C45.1697 28.7412 45.4388 28.5025 45.4236 27.8131C45.4116 27.2629 45.3043 26.7152 45.2394 26.1603C45.9433 26.0954 45.9177 26.7801 46.1051 27.2141C46.2196 27.4783 46.3141 27.5712 46.6031 27.5905C47.6642 27.6601 48.7092 27.5776 49.7182 27.2557C50.6263 26.9667 51.5191 26.6223 52.3984 26.2524C52.5858 26.1731 52.7916 25.8848 52.8044 25.6814C52.8917 24.2768 52.6859 22.9219 51.9756 21.6767C51.8579 21.4701 51.7794 21.2411 51.6601 21.0361C51.4903 20.743 51.2997 20.4627 51.1187 20.1768C51.0691 20.1784 51.0186 20.18 50.969 20.1816L50.9682 20.1832ZM45.9865 17.7657C45.997 17.8041 46.0066 17.8417 46.017 17.8802C45.8248 17.9563 45.6382 18.0788 45.4404 18.1012C44.6372 18.1917 43.8308 18.2702 43.0237 18.319C42.0443 18.3783 41.0529 18.3302 40.0856 18.4648C39.1206 18.5993 38.1693 18.87 37.2292 19.1406C35.9151 19.5194 34.5914 19.7684 33.2221 19.6115C32.8745 19.5714 32.4766 19.5891 32.149 19.1799C32.3677 19.1246 32.5206 19.0573 32.676 19.0525C33.3806 19.0301 34.0885 19.0549 34.7916 19.0085C36.0408 18.9252 37.2708 18.7314 38.452 18.279C38.8316 18.134 39.2384 18.0379 39.642 17.9859C40.0079 17.9386 40.3859 17.9987 40.7566 17.9811C42.1228 17.9162 43.4873 17.8345 44.8534 17.7689C45.2298 17.7505 45.6086 17.7665 45.9857 17.7665L45.9865 17.7657ZM37.5215 22.0707C37.5087 22.1163 37.4959 22.162 37.483 22.2084C36.7519 22.0274 36.0176 21.8585 35.2905 21.6639C34.4145 21.4292 33.54 21.3996 32.6487 21.5678C32.4405 21.607 32.1234 21.8977 32.0105 21.5125C31.9024 21.1418 32.31 21.1217 32.5302 21.0529C33.5752 20.727 34.6235 20.8239 35.6741 21.0657C36.3916 21.2307 36.9842 21.5958 37.5215 22.0707ZM38.5801 21.8673C38.6946 21.796 38.7146 21.7752 38.7387 21.7696C40.5516 21.3476 42.3262 21.5221 44.0519 22.1732C44.3962 22.3029 44.7557 22.5343 44.7694 23.0292C44.4386 22.8386 44.1544 22.584 43.8284 22.5047C43.0701 22.3205 42.2949 22.186 41.5198 22.0971C40.5749 21.9882 39.6227 21.9458 38.5801 21.8681V21.8673Z" fill="white"/>
<path d="M19.0459 27.4023C19.1868 27.5328 19.3277 27.6641 19.5143 27.8371C19.5303 27.8187 19.4823 27.9131 19.4054 27.9572C18.9009 28.2439 18.957 28.6915 19.0419 29.1536C19.0467 29.1816 19.013 29.216 18.9562 29.3305C18.8897 29.1039 18.8449 28.9494 18.792 28.7668C18.7352 28.8012 18.6615 28.8188 18.6391 28.8629C18.2002 29.7229 17.8679 30.6246 17.759 31.5855C17.6933 32.1613 17.8543 32.7018 18.205 33.1879C18.4052 33.4658 18.5494 33.7869 18.6983 34.0992C18.985 34.699 19.2501 35.31 19.5383 35.9089C19.7225 36.2917 19.9547 36.6521 20.1277 37.0405C20.6234 38.1567 21.0999 39.2826 21.5843 40.4045C22.1273 41.6618 23.2123 41.7507 24.1885 41.1725C24.5432 40.9627 24.7891 40.4574 24.9372 40.0346C25.1806 39.3443 25.3032 38.6108 25.557 37.8773C25.6972 38.7165 25.9542 39.5565 25.9526 40.3957C25.951 42.1647 26.385 43.8143 27.008 45.4398C27.2034 45.9483 27.3468 46.4769 27.5373 46.987C27.8024 47.6957 28.0322 48.4276 28.3934 49.0858C28.5463 49.3645 28.9795 49.515 29.3127 49.6616C29.8716 49.9066 30.453 50.0996 31.0239 50.3166C31.8039 50.6129 32.5839 50.9132 33.3638 51.2087C34.0293 51.4609 34.6955 51.7108 35.4002 51.9758C35.3257 51.4329 35.2577 50.9404 35.1808 50.3831C35.642 50.6521 35.7678 51.0749 35.9632 51.4537C36.2466 52.0047 36.5293 52.5588 36.8512 53.0873C37.0642 53.4373 37.3325 53.7568 37.5992 54.0699C37.8738 54.3926 38.2238 54.6112 38.665 54.6008C39.5835 54.5784 40.502 54.5503 41.4197 54.5071C42.8531 54.4398 44.2873 54.3766 45.7183 54.2725C46.1875 54.238 46.652 54.0947 47.1108 53.9722C47.2197 53.9433 47.3319 53.8144 47.3847 53.7039C47.8235 52.7846 47.8844 51.8077 47.7811 50.8147C47.7314 50.3422 47.468 50.0219 46.9835 49.9434C45.9097 49.7697 44.8374 49.5823 43.758 49.4566C43.1125 49.3813 42.4551 49.3981 41.8025 49.4013C41.4733 49.4029 41.1402 49.4414 40.8183 49.511C40.5709 49.5639 40.4051 49.5807 40.3627 49.27C40.3522 49.1915 40.261 49.125 40.1328 48.9545C40.5396 49.1811 40.671 48.9545 40.8872 48.7671C41.1634 48.5269 41.5366 48.3251 41.8945 48.2634C43.3087 48.02 44.7301 48.1489 46.1523 48.257C46.9811 48.3195 47.8187 48.2682 48.6611 48.2682C48.7012 47.9535 48.4922 47.7509 48.2199 47.5755C46.9787 46.7747 45.5749 46.5097 44.1471 46.3127C42.0843 46.0276 40.068 46.2879 38.0636 46.7812C37.0867 47.0214 36.0969 47.2112 35.1111 47.4122C35.003 47.4346 34.8781 47.3761 34.7612 47.3553C34.8349 47.2624 34.8901 47.1287 34.9862 47.0831C36.6206 46.3111 38.2878 45.6641 40.1016 45.4102C42.0011 45.1444 43.8669 45.2677 45.7247 45.6625C46.7064 45.8707 47.6762 46.1365 48.7196 46.2991C48.6043 46.1005 48.5106 45.8843 48.3681 45.7081C47.9557 45.1956 47.5585 44.6639 47.0908 44.2058C46.3373 43.4667 45.3395 43.2321 44.3417 43.0399C43.9958 42.9734 43.7852 42.7845 43.5369 42.5362C43.1165 42.1142 42.6032 41.7659 42.0827 41.468C41.5919 41.1869 41.0169 41.054 40.5236 40.7761C40.0351 40.5006 39.6035 40.1243 39.1639 39.8048C38.4512 41.7603 36.5173 42.541 34.7788 42.5658C35.4523 42.1358 36.1337 41.7186 36.7944 41.2702C37.0746 41.0796 37.3557 40.8578 37.5567 40.5895C38.0084 39.9881 38.42 39.3547 38.8284 38.7229C39.2063 38.1375 39.7396 37.7331 40.2994 37.3432C40.6317 37.1117 40.916 36.813 41.2331 36.5592C41.31 36.4975 41.4853 36.4367 41.5238 36.4727C41.6255 36.5688 41.7608 36.7418 41.732 36.8403C41.6815 37.0132 41.543 37.1846 41.3981 37.3023C41.0898 37.553 40.7326 37.7443 40.4339 38.0054C40.0071 38.3794 39.8013 38.8638 39.9543 39.4356C40.0007 39.6078 40.1448 39.7543 40.2449 39.9121C40.257 39.8624 40.269 39.812 40.2802 39.7623C40.554 39.6678 40.8207 39.5237 41.1026 39.486C42.327 39.3211 43.2311 39.8944 44.0118 40.7737C44.6548 41.4984 45.6566 41.5096 46.3933 40.9002C46.9138 40.4702 47.4015 40.0266 47.8275 39.4957C48.0702 39.1938 48.1414 38.9423 48.0269 38.5924C47.6562 37.4641 47.2133 36.3638 46.5343 35.386C46.2035 34.9104 46.2356 34.3771 46.1099 33.8678C45.9849 33.3641 45.888 32.8532 45.7415 32.3567C45.6238 31.9587 45.3195 31.7457 44.8991 31.7521C44.3938 31.7601 43.8869 31.7745 43.3848 31.825C43.2719 31.8362 43.1229 31.9875 43.0797 32.1068C42.7762 32.9437 42.5816 33.8317 42.1852 34.6197C41.7512 35.4829 41.1762 36.2493 40.2762 36.7794C39.4225 37.2815 38.5425 37.5249 37.5928 37.5482C36.5838 37.573 35.57 37.561 34.565 37.4801C33.4655 37.392 32.6816 36.7346 32.2227 35.7736C31.6574 34.5893 31.0584 33.4025 30.9719 32.0188C30.7469 32.0692 30.5451 32.1165 30.3417 32.1589C29.657 32.303 29.0444 32.1741 28.4534 31.7753C27.7936 31.3309 27.0761 30.9721 26.4082 30.5389C25.8533 30.1794 25.3336 29.7646 24.8395 29.4042C24.5368 29.8743 24.2397 30.3371 23.9418 30.7992C23.8986 30.7912 23.8545 30.784 23.8113 30.7759C23.9923 29.5748 23.467 28.6787 22.7327 27.8739C22.6926 27.8867 22.6526 27.9003 22.6125 27.9132V28.5161C22.3195 28.0869 21.9895 27.6032 21.6124 27.0499C21.5403 27.2437 21.5043 27.3414 21.4498 27.4871C21.3001 27.1572 21.1735 26.8777 21.047 26.5983C20.5794 27.8851 20.5641 28.2166 21.3946 28.9494C21.9183 29.4106 22.1689 30.0897 22.3114 30.7976C22.2338 30.7095 22.1569 30.6222 22.0728 30.5269C22.0816 31.0947 22.1104 31.1147 22.5813 30.8937C22.8416 30.7719 22.9801 30.8152 23.2524 31.0738C23.2059 31.9731 23.1619 32.8324 23.1162 33.7204C22.49 33.5266 22.4003 32.9901 22.3058 32.3807C22.1088 32.8243 21.9391 33.2079 21.7685 33.5915C21.7333 33.5803 21.698 33.5691 21.6628 33.5587C21.6772 33.449 21.6916 33.3392 21.7069 33.2239C21.6756 33.2239 21.6404 33.2159 21.6356 33.2247C21.035 34.2545 21.0814 35.0593 21.8342 35.977C21.9703 36.1428 22.1881 36.2517 22.3835 36.3582C22.7239 36.544 22.9833 36.4487 23.1875 36.1139C23.2996 35.9306 23.471 35.7832 23.6183 35.6167C24.4255 36.4351 24.5568 37.1566 24.0251 37.8573C23.9242 37.4088 23.8305 36.994 23.72 36.5055C23.2796 36.9315 23.246 37.44 23.0938 37.8941C23.0185 38.1191 23.0009 38.3866 22.864 38.5611C22.7495 38.7069 22.4692 38.851 22.3179 38.807C22.1369 38.7541 21.9303 38.5179 21.887 38.3273C21.8158 38.0142 21.8678 37.6723 21.8254 37.3095C21.5587 37.6643 21.4218 37.5818 21.0991 37.3552C20.3848 36.8547 20.1397 36.1252 19.9403 35.3812C19.6913 34.4499 19.7922 33.5034 20.1037 32.5889C20.1501 32.4528 20.2382 32.3303 20.3127 32.2045C20.7171 31.5207 20.8524 31.4726 21.5987 31.7457C22.0472 31.2156 21.6652 30.1457 21.1247 29.775C20.7571 29.5227 20.392 29.2649 20.0508 28.979C19.8026 28.7716 19.9596 28.5105 20.05 28.2815C20.1966 27.9115 20.3752 27.5528 20.5121 27.1796C20.5681 27.0275 20.5505 26.8489 20.5722 26.6279C20.0252 26.9122 19.5415 27.1628 19.0571 27.4143L19.0483 27.4055L19.0459 27.4023ZM29.1469 34.2441C29.1902 34.2257 29.2342 34.2081 29.2774 34.1897C29.4808 34.5252 29.693 34.8567 29.8868 35.1987C30.3241 35.9706 30.718 36.7714 31.1985 37.5153C31.482 37.9541 31.86 38.3513 32.262 38.6877C32.8089 39.1441 33.4191 39.5237 33.998 39.9329C32.8794 42.0437 31.8704 44.1474 31.1825 46.3936C31.0984 44.0889 31.948 42.0638 33.0643 40.1251C32.8225 40.0306 32.6015 39.9897 32.4365 39.8712C31.3419 39.0841 30.7493 37.9213 30.1647 36.7586C29.8972 36.2261 29.6426 35.6863 29.4032 35.141C29.2782 34.8567 29.042 34.5885 29.1477 34.2449L29.1469 34.2441Z" fill="white"/>
<path d="M20.014 23.9813C19.7826 24.0422 19.5511 24.1038 19.2965 24.1711C19.4839 23.9669 19.6456 23.7803 19.8194 23.6058C20.0388 23.3855 19.9716 22.7753 19.6857 22.64C19.4118 22.5111 19.1259 22.3966 18.8328 22.3253C18.4765 22.238 18.2058 22.065 18.0024 21.7191C18.0921 21.6879 18.1594 21.6647 18.1562 21.6663C18.1217 21.2963 18.0729 20.944 18.0681 20.5916C18.0673 20.5139 18.2058 20.3978 18.3027 20.3626C18.4965 20.2937 18.7287 20.3113 18.9057 20.2184C19.8042 19.7468 20.6899 19.2511 21.5803 18.7642L21.5531 18.6633C21.3121 18.6105 21.071 18.5576 20.8036 18.4984C21.1359 18.0467 21.6388 17.9795 22.0015 18.3374C22.0616 18.2549 22.1217 18.1717 22.1833 18.086C22.02 17.9763 21.8478 17.8601 21.5715 17.6736C21.8262 17.5911 21.9527 17.5342 22.0848 17.5102C22.924 17.3573 23.2067 16.9913 23.129 16.1217C23.1034 15.8302 23.0778 15.5363 23.0121 15.252C22.8191 14.4104 22.6053 13.5736 22.4019 12.7343C22.1953 11.8791 21.24 11.5228 20.5041 12.133C19.5367 12.9361 18.4669 13.6104 17.5924 14.5353C17.2521 14.8957 17.0151 15.2824 16.9991 15.7589C16.9758 16.4708 17.0007 17.1851 17.0399 17.897C17.0503 18.0788 17.1904 18.2541 17.2441 18.3726C17.1744 18.6009 17.0887 18.8019 17.0535 19.0109C16.9951 19.3544 16.935 19.6379 16.5738 19.8525C16.3008 20.0142 16.1214 20.3682 15.9556 20.6669C15.7578 21.0232 15.5665 21.3996 15.4664 21.7912C15.3142 22.3862 15.7723 23.4504 16.5642 23.7227C16.9734 23.8636 17.1448 24.1439 17.3194 24.5194C17.5708 25.0632 17.9184 25.5693 18.2739 26.0553C18.4268 26.2643 19.5279 26.3084 19.7241 26.1498C19.7946 26.0938 19.8218 25.9224 19.7954 25.8231C19.7593 25.687 19.6408 25.5757 19.5808 25.4435C19.2685 24.7525 19.3894 24.3713 20.0124 23.9789L20.014 23.9813Z" fill="white"/>
<path d="M36.4236 36.4471C36.671 36.4255 37.1027 36.4295 37.5143 36.3422C38.0284 36.2325 38.5305 36.0611 39.0285 35.8897C39.5122 35.724 39.8501 35.3861 40.116 34.9432C40.7502 33.887 41.3068 32.8027 41.3484 31.5415C41.362 31.1243 41.2771 30.6991 41.2003 30.2851C41.1786 30.1706 41.0337 30.0064 40.9288 29.9936C40.4964 29.9383 40.0495 29.8759 39.6243 29.9359C39.4538 29.96 39.288 30.2763 39.1887 30.4917C38.8179 31.2957 38.3247 31.9731 37.5167 32.3943C36.6078 32.8692 35.6597 32.8596 34.734 32.5505C34.2655 32.3943 33.8723 32.0172 33.4391 31.7505C33.1684 31.5831 32.8898 31.427 32.6087 31.2788C32.3036 31.1179 32.141 31.2156 32.1402 31.5719C32.1386 32.4007 32.4021 33.1663 32.7384 33.9102C32.8313 34.116 32.9442 34.3122 33.0363 34.518C33.8139 36.2485 34.75 36.4407 36.422 36.4479L36.4236 36.4471Z" fill="white"/>
<path d="M51.1548 29.8366C50.6936 30.4797 50.2395 31.1123 49.7823 31.7489C50.5751 32.5049 50.893 31.68 51.3815 31.2773C51.6481 31.6072 51.894 31.9107 52.1446 32.2206C51.2405 33.0622 50.27 32.7395 49.317 32.4552C48.903 32.3319 48.4802 32.1797 48.1223 31.9467C47.7827 31.7257 47.5225 31.383 47.2302 31.0907C47.1213 30.9826 47.0196 30.8664 46.9147 30.7543C46.8723 30.7696 46.8298 30.7856 46.7882 30.8008C46.8819 31.3109 46.9091 31.845 47.0837 32.3263C47.4416 33.3104 47.8788 34.2658 48.2824 35.2339C48.5018 35.7608 48.9655 36.0195 49.4532 36.1772C50.0762 36.379 50.7392 36.4391 51.3775 36.2317C51.5776 36.1668 51.8259 35.9818 51.8851 35.7977C52.2087 34.7911 52.5946 33.7925 52.541 32.701C52.5258 32.3999 52.4529 32.1653 52.2455 31.9147C51.9844 31.5984 51.8395 31.1852 51.6473 30.812C51.4784 30.4829 51.3134 30.1506 51.1548 29.8358V29.8366Z" fill="white"/>
<path d="M48.1639 9.13325C48.7885 9.71782 49.4131 10.2439 49.9632 10.8389C50.2996 11.2025 50.5526 11.6557 50.7888 12.0977C51.0947 12.6711 51.3326 13.2813 51.6272 13.8611C51.7882 14.1774 52.006 14.4648 52.2503 14.7435C52.4328 14.195 52.2214 13.4791 53.1175 13.4142C52.9197 13.7409 52.7219 14.0677 52.4713 14.4809C52.8909 14.3944 53.2192 13.9171 53.2648 13.5207C53.3449 12.8184 53.1007 12.2307 52.5882 11.7702C51.8082 11.0687 51.0195 10.3761 50.2091 9.70981C49.6165 9.22293 48.8606 9.2926 48.1647 9.13245L48.1639 9.13325Z" fill="white"/>
<path d="M54.9008 30.9049C54.8832 31.1787 54.8568 31.3982 54.8568 31.6184C54.8568 32.5441 54.3443 33.3064 54.0744 34.1472C53.8935 34.7134 53.8006 35.3076 53.6484 35.981C54.9128 35.0986 55.881 34.1649 56.0379 32.6498C56.074 32.299 56.0067 32.046 55.7304 31.8066C55.443 31.5583 55.2107 31.2468 54.9008 30.9049Z" fill="white"/>
<path d="M38.9789 29.9319C38.918 29.9079 38.8588 29.8647 38.7987 29.8639C38.4552 29.8575 38.1108 29.8607 37.7425 29.8607C37.5447 30.5477 37.6296 31.3485 36.876 31.8186C37.7609 31.8186 38.3951 31.2348 38.9789 29.9319Z" fill="white"/>
<path d="M35.7638 31.9555C34.9558 31.5575 34.6635 30.8841 34.5979 29.9824C34.1174 30.1754 33.689 30.3475 33.2501 30.5245C33.6826 31.27 35.1376 32.1117 35.763 31.9563L35.7638 31.9555Z" fill="white"/>
<path d="M50.7792 18.528C50.3876 18.512 49.9968 18.8427 50.0273 19.1046C50.0449 19.2591 50.1578 19.4161 50.2667 19.5354C50.2923 19.5634 50.4805 19.4513 50.5886 19.3928C50.6807 19.344 50.7824 19.2951 50.8481 19.2191C50.9329 19.1222 51.0619 18.974 51.0362 18.89C50.9874 18.733 50.8401 18.6073 50.7792 18.5264V18.528Z" fill="white"/>
<path d="M19.0547 27.4119C18.8065 27.3022 18.5582 27.1925 18.2652 27.0627C18.4958 27.3975 18.7016 27.7074 18.9234 28.0045C18.9514 28.0421 19.082 28.0429 19.1332 28.0109C19.1788 27.9812 19.2109 27.8763 19.1965 27.8163C19.1636 27.6745 19.0996 27.5408 19.0475 27.4031L19.0555 27.4111L19.0547 27.4119Z" fill="white"/>
<path d="M16.171 25.2514C15.8891 24.8478 15.6073 24.445 15.3254 24.0414C15.2765 24.0742 15.2277 24.1062 15.1797 24.1391C15.4455 24.5515 15.7122 24.9639 15.978 25.3763C16.0421 25.3346 16.107 25.293 16.171 25.2514Z" fill="white"/>
<path d="M54.6501 32.2286C54.546 31.7225 54.4419 31.2164 54.3378 30.7111C54.2986 30.7191 54.2602 30.7271 54.2209 30.7351C54.3402 31.2372 54.4588 31.7393 54.5781 32.2414C54.6021 32.2374 54.6261 32.2334 54.6501 32.2286Z" fill="white"/>
<path d="M45.9866 17.7649C45.6094 17.7649 45.2307 17.7496 44.8543 17.7673C43.4882 17.8329 42.1236 17.9146 40.7575 17.9795C40.3859 17.9971 40.008 17.937 39.6428 17.9843C39.24 18.0363 38.8324 18.1324 38.4528 18.2774C37.2717 18.729 36.0417 18.9236 34.7925 19.0069C34.0894 19.0541 33.3823 19.0285 32.6768 19.0509C32.5223 19.0557 32.3693 19.123 32.1499 19.1782C32.4766 19.5882 32.8746 19.5698 33.2229 19.6099C34.5923 19.7676 35.916 19.5186 37.23 19.139C38.1702 18.8683 39.1215 18.5977 40.0864 18.4631C41.0538 18.3286 42.0451 18.3767 43.0245 18.3174C43.8317 18.2686 44.6373 18.1901 45.4413 18.0996C45.6391 18.0772 45.8256 17.9554 46.0178 17.8786C46.0074 17.8401 45.9978 17.8025 45.9874 17.7641L45.9866 17.7649Z" fill="black"/>
<path d="M37.5215 22.0707C36.9842 21.5958 36.3916 21.2315 35.6741 21.0657C34.6235 20.8239 33.5752 20.727 32.5302 21.0529C32.31 21.1217 31.9016 21.1418 32.0105 21.5125C32.1234 21.8977 32.4405 21.607 32.6487 21.5678C33.54 21.3996 34.4153 21.4292 35.2905 21.6639C36.0176 21.8585 36.7519 22.0282 37.483 22.2084C37.4959 22.1628 37.5087 22.1171 37.5215 22.0707Z" fill="black"/>
<path d="M38.5809 21.8673C39.6235 21.9449 40.5757 21.9874 41.5206 22.0963C42.2965 22.186 43.0709 22.3197 43.8292 22.5039C44.1559 22.5832 44.4402 22.8378 44.7701 23.0284C44.7565 22.5335 44.397 22.3021 44.0526 22.1724C42.3262 21.5213 40.5524 21.3467 38.7395 21.7688C38.7154 21.7744 38.6954 21.7952 38.5809 21.8665V21.8673Z" fill="black"/>
<path d="M29.1469 34.245C29.042 34.5885 29.2782 34.8567 29.4023 35.141C29.6409 35.6872 29.8964 36.2261 30.1639 36.7586C30.7484 37.9221 31.341 39.0841 32.4357 39.8712C32.6006 39.9898 32.8216 40.0298 33.0635 40.1251C31.9472 42.0646 31.0976 44.089 31.1816 46.3936C31.8703 44.1474 32.8785 42.0438 33.9972 39.9329C33.419 39.5237 32.808 39.1441 32.2611 38.6877C31.8591 38.3522 31.4811 37.9542 31.1977 37.5153C30.7172 36.7714 30.324 35.9714 29.886 35.1987C29.6922 34.8567 29.4808 34.526 29.2766 34.1897C29.2333 34.2081 29.1893 34.2257 29.1461 34.2441L29.1469 34.245Z" fill="black"/>
</g>
<g clip-path="url(#clip1_7_8)">
<path d="M92.8 20.14C92.98 20.14 93.1 20.08 93.28 20.08C94.96 20.08 95.86 21.52 95.86 23.32C95.86 26.5 93.88 29.56 92.08 31.96C92.08 33.28 92.02 34.84 91.96 36.4C94.42 34.6 96.16 32.2 99.34 27.7C99.58 27.34 99.94 27.16 100.24 27.16C100.66 27.16 101.02 27.52 101.02 28.06C101.02 28.36 100.96 28.66 100.72 29.08C97.78 34.42 95.26 37.24 91.72 39.52C91.36 42.94 90.76 46.54 89.38 49.36C87.22 53.86 82.9 56.68 78.1 56.68C73.78 56.68 70 54.46 70 50.08C70 44.08 77.26 41.68 83.74 39.58L85.36 39.04C85.48 38.02 85.54 37.42 85.54 37.06C83.68 38.38 81.88 38.74 80.5 38.74C76.96 38.74 73.66 36.28 73.66 31.24C73.66 23.38 80.38 15.88 87.4 15.88C90.58 15.88 92.86 17.8 92.86 19.72C92.86 19.84 92.86 20.02 92.8 20.14ZM85 42.04C80.68 43.66 76.06 45.94 76.06 49.96C76.06 52.18 77.26 53.32 78.82 53.32C81.7 53.32 83.98 49.36 85 42.04ZM86.02 33.22C86.44 29.74 87.22 26.08 88.6 23.5C87.88 23.38 87.22 23.14 87.22 22.72C87.22 22.18 87.7 21.88 87.7 20.92C87.7 19.84 87.16 19.18 86.14 19.18C83.86 19.18 80.2 23.5 80.2 29.56C80.2 32.68 81.52 34.42 83.44 34.42C84.58 34.42 85.36 33.88 86.02 33.22Z" fill="#231F20"/>
<path d="M119.14 27.7C119.38 27.34 119.74 27.16 120.04 27.16C120.46 27.16 120.82 27.52 120.82 28.06C120.82 28.36 120.76 28.66 120.52 29.08C116.02 37.18 110.26 39.1 106.3 39.1C102.34 39.1 97.9 36.28 97.9 30.52C97.9 23.26 104.08 15.88 110.74 15.88C114.52 15.88 116.68 18.22 116.68 20.92C116.68 25 112 28.96 104.8 29.86C105.16 32.38 106.36 34.3 109.06 34.3C111.04 34.3 115.06 33.52 119.14 27.7ZM104.68 27.46C108.1 26.56 111.34 23.68 111.34 20.56C111.34 19.3 110.68 18.76 110.08 18.76C107.92 18.76 105.04 23.2 104.68 27.46Z" fill="#231F20"/>
<path d="M141.7 20.32C141.88 19.72 142.24 19.48 142.66 19.48C143.26 19.48 143.98 20.08 143.98 21.1C143.98 21.4 143.92 21.82 143.74 22.18C140.68 30.16 135.4 39.1 126.28 39.1C122.2 39.1 117.88 36.28 117.88 30.52C117.88 23.26 124.06 15.88 130.72 15.88C134.5 15.88 136.66 18.22 136.66 20.92C136.66 25 131.98 28.96 124.78 29.86C125.14 32.38 126.34 34.3 129.04 34.3C133.54 34.3 139.06 30.16 141.7 20.32ZM124.66 27.46C128.08 26.56 131.32 23.68 131.32 20.56C131.32 19.3 130.66 18.76 130.06 18.76C127.9 18.76 125.02 23.2 124.66 27.46Z" fill="#231F20"/>
<path d="M152.26 23.14C150.4 22.72 148.96 22 147.7 22C146.26 22 145.12 22.78 144.82 23.86C144.58 24.64 144.58 25.12 143.8 25.12C141.82 25.12 139.54 23.38 139.54 20.44C139.54 17.98 141.52 15.7 144.94 15.7C148.72 15.7 152.68 18.88 156.64 19.78C157.54 19.36 158.38 19 158.86 19C160.06 19 160.96 19.54 160.96 20.74C160.96 22.36 158.68 23.86 157.36 23.86H157C152.62 26.08 146.08 30.4 144.94 31.9C146.62 31.9 149.86 33.34 152.44 33.34C156.28 33.34 160 30.7 162.1 27.7C162.34 27.34 162.7 27.16 163 27.16C163.42 27.16 163.78 27.52 163.78 28.06C163.78 28.36 163.72 28.66 163.48 29.08C158.98 37.18 153.94 39.46 149.02 39.46C145.78 39.46 144.1 37.54 142.24 37.54C141.04 37.54 140.56 38.2 139.72 38.2C138.64 38.2 138.04 37.36 138.04 36.04C138.04 32.5 146.8 26.92 152.26 23.14Z" fill="#231F20"/>
<path d="M184.48 20.32C184.66 19.72 185.02 19.48 185.44 19.48C186.04 19.48 186.76 20.08 186.76 21.1C186.76 21.4 186.7 21.82 186.52 22.18C183.46 30.16 178.18 39.1 169.06 39.1C164.98 39.1 160.66 36.28 160.66 30.52C160.66 23.26 166.84 15.88 173.5 15.88C177.28 15.88 179.44 18.22 179.44 20.92C179.44 25 174.76 28.96 167.56 29.86C167.92 32.38 169.12 34.3 171.82 34.3C176.32 34.3 181.84 30.16 184.48 20.32ZM167.44 27.46C170.86 26.56 174.1 23.68 174.1 20.56C174.1 19.3 173.44 18.76 172.84 18.76C170.68 18.76 167.8 23.2 167.44 27.46Z" fill="#231F20"/>
<path d="M187.42 19.78H188.14C189.88 19.78 192.1 19.18 193.06 18.46C193.66 17.98 194.14 17.8 194.5 17.8C195.46 17.8 196.84 19.06 196.84 20.56C196.84 21.46 196.36 22.36 195.64 23.5C194.26 25.72 192.28 29.02 192.28 32.02C192.28 33.16 192.94 33.7 193.66 33.7C194.8 33.7 195.88 33.04 197.14 31.42C197.62 30.82 197.92 30.22 198.46 30.22C198.82 30.22 199.06 30.64 199.06 31.54C199.06 33.7 195.76 39.1 190.48 39.1C187.48 39.1 185.26 37 185.26 33.88C185.26 31 187.72 27.16 189.64 24.82C185.8 23.92 181.96 21.28 181.96 17.44C181.96 15.04 183.52 13 185.5 13C187 13 187.96 14.44 187.96 16.66C187.96 17.38 187.78 18.46 187.42 19.78Z" fill="#231F20"/>
</g>
<defs>
<clipPath id="clip0_7_8">
<rect width="82" height="82" fill="white" transform="matrix(-1 0 0 1 77 -11)"/>
</clipPath>
<clipPath id="clip1_7_8">
<rect width="129.06" height="43.68" fill="white" transform="translate(70 13)"/>
</clipPath>
</defs>
</svg>
